<?xml version="1.0" standalone="no"?>
<!DOCTYPE svg PUBLIC "-//W3C//DTD SVG 20010904//EN"
 "http://www.w3.org/TR/2001/REC-SVG-20010904/DTD/svg10.dtd">
<svg version="1.0" xmlns="http://www.w3.org/2000/svg"
 width="300.000000pt" height="300.000000pt" viewBox="0 0 300.000000 300.000000"
 preserveAspectRatio="xMidYMid meet">
<metadata>
Created by potrace 1.14, written by Peter Selinger 2001-2017
</metadata>
<g transform="translate(0.000000,300.000000) scale(0.100000,-0.100000)"
fill="#000000" stroke="none">
<path d="M1904 2090 c-55 -8 -92 -34 -110 -75 -19 -46 -18 -135 1 -162 31 -45
143 -52 207 -15 67 39 87 187 32 233 -20 17 -82 26 -130 19z"/>
<path d="M936 2003 c-10 -47 -176 -995 -176 -1004 0 -5 162 -9 360 -9 l360 0
4 23 c8 34 36 193 36 200 0 4 -104 7 -231 7 l-231 0 5 29 c3 15 9 51 13 80 l7
51 192 0 193 0 17 93 c9 50 19 102 22 115 l5 22 -191 0 c-151 0 -191 3 -191
13 0 14 16 113 25 154 5 23 6 23 237 25 l232 3 18 95 c9 52 17 103 17 113 1
16 -23 17 -358 17 l-359 0 -6 -27z"/>
<path d="M1745 1668 c-14 -48 -85 -495 -85 -542 0 -103 42 -144 155 -153 69
-6 131 8 169 38 24 19 26 26 26 99 l0 79 -27 -8 c-37 -10 -61 -4 -67 17 -3 9
12 118 34 242 22 123 40 228 40 232 0 14 -240 10 -245 -4z"/>
</g>
</svg>
